<svg xmlns="http://www.w3.org/2000/svg" viewBox="0 0 238.94 197.07"><defs><style>.cls-1,.cls-3,.cls-4{fill:#020202;}.cls-2{fill:#666;}.cls-3{opacity:0.38;}.cls-4{opacity:0.16;}.cls-5{fill:#f6f6f6;}.cls-6{fill:#f4f4f4;}.cls-7{fill:#fafafa;}.cls-11,.cls-12,.cls-13,.cls-16,.cls-19,.cls-8{fill:none;}.cls-8{stroke:#010101;stroke-width:4px;}.cls-11,.cls-12,.cls-13,.cls-14,.cls-15,.cls-16,.cls-17,.cls-18,.cls-19,.cls-8{stroke-miterlimit:10;}.cls-9{fill:#b1b1b1;}.cls-10{fill:#0a4419;}.cls-11{stroke:#5b5b5b;}.cls-11,.cls-17,.cls-18{stroke-width:0.25px;}.cls-12{stroke:#676767;}.cls-13{stroke:#606060;}.cls-14{fill:#909090;}.cls-14,.cls-15{stroke:#838383;}.cls-14,.cls-15,.cls-19{stroke-width:0.5px;}.cls-15{fill:#101010;}.cls-16{stroke:#272727;stroke-width:3px;}.cls-17{fill:#393;}.cls-17,.cls-18{stroke:#000;}.cls-18{fill:#030;}.cls-19{stroke:#636363;}.cls-20{opacity:0.36;}.cls-21{fill:#6c3;}.cls-22{fill:#1e1e1e;}</style></defs><g id="Layer_5" data-name="Layer 5"><rect class="cls-1" width="238.94" height="195.85"/></g><g id="Layer_4" data-name="Layer 4"><path class="cls-2" d="M0,89.16c9.14-11.46,93.2,11.49,126.22,6.49,75.09-11.38,71,15.75,112.72-2.41V195.85H0Z" transform="translate(0 0)"/></g><g id="Layer_6" data-name="Layer 6"><path class="cls-3" d="M19,98c-.34,2.09,6.46,4.92,2.28,4.25s-7.29-2.91-7-5,4-3.24,8.17-2.57S19.31,95.88,19,98Z" transform="translate(0 0)"/><path class="cls-4" d="M13.55,130.42c-1.68,3.65,8.1,11.76,1.51,8.72S4.49,130.68,6.18,127s8.4-4.16,15-1.13S15.24,126.76,13.55,130.42Z" transform="translate(0 0)"/><path class="cls-3" d="M193,107.74c-.38,1.15,6.09,4.36,2.08,3s-7-3.37-6.56-4.52,3.95-1,8,.36S193.4,106.59,193,107.74Z" transform="translate(0 0)"/><path class="cls-4" d="M220.88,149.73c-1.69,3.66,8.1,11.77,1.51,8.73s-10.57-8.47-8.88-12.13,8.39-4.16,15-1.12S222.56,146.07,220.88,149.73Z" transform="translate(0 0)"/><circle class="cls-5" cx="220.78" cy="18.23" r="0.98"/><circle class="cls-6" cx="33.57" cy="18.23" r="0.98"/><circle class="cls-7" cx="217.44" cy="41.32" r="3.34"/></g><g id="Layer_1" data-name="Layer 1"><g id="Layer_1-2" data-name="Layer 1"><path class="cls-8" d="M58.6,77.7c-5.07,56.9-55.9,76-48.78,99.73" transform="translate(0 0)"/></g><g id="Layer_2" data-name="Layer 2"><path class="cls-9" d="M61.33,127.57c2.62-3.38,13-9.21,2.62-19.69,0,0-.45-5.54-.54-6.13-.59-3.65-1.09-9.67-.75-20.13l-5.87-.23a4.14,4.14,0,0,1-3.94-3.65c-.77-6.38.57-24.21,2.36-30,2.64-8.58,7.32-16.9,9.48-21.64a4.54,4.54,0,0,1,5.56-2.42l5.09,1.7S86.13,0,127.13,0c36.15-.47,53.66,30.93,53.66,30.93l13-.9a6.35,6.35,0,0,1,4.85,3.88c2,5,2.9,18.46,3.22,24.86a3.88,3.88,0,0,1-3.26,4l-13,2.06s.37,14.48.37,24.6c0,13.42-7.08,20.12-7.08,20.12a16.9,16.9,0,0,0-.45,3.37c0,.31,0,.63,0,.94a17.47,17.47,0,0,0,8.77,14.59,199.19,199.19,0,0,1,22.3,15.39c16.39,9.69,25.34,41.74,29.44,52H0c2.29-28.14,28.74-50.92,40.3-56C43.57,138.46,58.49,131.24,61.33,127.57Z" transform="translate(0 0)"/></g><g id="Layer_3" data-name="Layer 3"><path class="cls-10" d="M71.88,51.32c16.06-23.79,47.3-25.94,52.65-26,9,0,35.53-1.31,47.7,19.75,7.11,12.3,8.2,36.52,2.61,49.2-8,18.17-39.42,21.54-48.08,21.61-3.65,0-43.74-.23-55.9-29.07C70.35,85.63,66,60,71.88,51.32Z" transform="translate(0 0)"/></g><path class="cls-11" d="M64,107.88c19.31,23.71,46.57,27.86,62.86,27.86,22.82,0,36.75-6.52,52.08-26.18" transform="translate(0 0)"/><path class="cls-12" d="M187.56,195.85c1.2,1-1.37.93,0,0,0,0-1.9-19.17-4.75-18.92" transform="translate(0 0)"/><path class="cls-13" d="M54.81,181.37c.79,4.83-1.67,9.65-.88,14.48" transform="translate(0 0)"/><path class="cls-12" d="M99,177.81" transform="translate(0 0)"/><rect class="cls-14" x="96.59" y="170.4" width="59.26" height="25.44"/><circle class="cls-15" cx="190.37" cy="38.7" r="3.7"/><circle class="cls-15" cx="192.54" cy="51.29" r="4.66"/><path class="cls-16" d="M68.84,55.07C71.11,41,93.13,20.89,127.33,20.89,160.89,20.89,175,38,176.89,51.3" transform="translate(0 0)"/><rect class="cls-17" x="104.3" y="177.43" width="5.7" height="5.7"/><rect class="cls-18" x="142.52" y="177.81" width="4.15" height="14.3"/><path class="cls-19" d="M61.33,127.57c1.36,1.29,3.92,4,7.25,18.23,2.58,11-1.74,18.89-3.38,20.53" transform="translate(0 0)"/><path class="cls-19" d="M40.15,139.91c1.36,1.3,3.92,4,7.25,18.23" transform="translate(0 0)"/><path class="cls-19" d="M19,158.14c4,1.3,11.45,4,21.17,18.24" transform="translate(0 0)"/><path class="cls-19" d="M5,177.63a70.77,70.77,0,0,1,27.57,9.12" transform="translate(0 0)"/><path class="cls-19" d="M183.78,125.67c-1.2,1.34-7.08,2.92-10,17.64-2.27,11.41-2.13,15.39-.69,17.08" transform="translate(0 0)"/><path class="cls-19" d="M202.35,138.43a55,55,0,0,0-12,25.09" transform="translate(0 0)"/><path class="cls-19" d="M230.61,177.81c-4.54.67-10.52,1.65-21.63,9" transform="translate(0 0)"/></g><g id="Layer_2-2" data-name="Layer 2" class="cls-20"><ellipse class="cls-21" cx="112.59" cy="49.67" rx="28.74" ry="10.67" transform="translate(-6.65 19.24) rotate(-9.49)"/><path class="cls-22" d="M178.89,109.56c-26.3,39.88-89,30.35-114.94-1.68,0,0,26.83,39.07,69.64,35.15C172,139.51,178.89,109.56,178.89,109.56Z" transform="translate(0 0)"/></g><g id="Layer_3-2" data-name="Layer 3"><path d="M218.25,170l-1.52-10.95h-7.87a2.31,2.31,0,0,1-1-.24,2.2,2.2,0,0,1-1-.81c-.19-.32-.14-.54.18-.6a5.45,5.45,0,0,1,1-.07h8.46a4.31,4.31,0,0,1,.83.11,2.3,2.3,0,0,1,1.68,1.22,6.42,6.42,0,0,1,.17.94c.1.71.19,1.41.29,2.12.15,1.14.31,2.27.47,3.41l.77,5.54c.19,1.38.37,2.75.56,4.12.07.48.15,1,.22,1.45a.4.4,0,0,1-.19.49c-.41.21-1.45-.18-2-.76a4.12,4.12,0,0,1-.47-.74l-2-3.81q-1.29-2.48-2.59-4.95c-.28-.54-.59-1.1-.86-1.64a1.1,1.1,0,0,1-.13-.52c0-.28.45-.35,1-.2a2.6,2.6,0,0,1,1.31.89c.25.41.45.81.66,1.21.65,1.23,1.29,2.46,1.93,3.69l.06.1Z" transform="translate(0 0)"/><path d="M204.83,150.89l1.5,10.6.27,0,7.83.13.44,0a2.72,2.72,0,0,1,1.64.88c.35.44.23.78-.33.79s-1,0-1.57,0l-7.14-.11c-.49,0-1,0-1.5-.06a2.17,2.17,0,0,1-1.86-1.29c-.25-1.52-.5-3-.72-4.55s-.42-2.9-.62-4.35c-.16-1.2-.32-2.39-.49-3.59-.23-1.64-.47-3.28-.71-4.93,0-.23,0-.44.14-.56a1.33,1.33,0,0,1,1.21.13,2.2,2.2,0,0,1,1.06.93q1.28,2.56,2.56,5.15c1,1.91,1.94,3.82,2.91,5.73.16.31.25.59,0,.73a1.37,1.37,0,0,1-1.13-.13,2.31,2.31,0,0,1-1-.82,9.83,9.83,0,0,1-.48-.9l-1.86-3.7Z" transform="translate(0 0)"/></g></svg>