<svg id="Layer_1" data-name="Layer 1" xmlns="http://www.w3.org/2000/svg" viewBox="0 0 1671 1424"><defs><style>.cls-1,.cls-2{fill:#fff;}.cls-1{fill-opacity:0;}</style></defs><path class="cls-1" d="M0,1424V0H1671V1424Zm782.54-351.24-1-.37c.31-1.3.49-2.63.93-3.9,16.72-48,33.55-96,50.13-144,5.4-15.62,10.91-31.26,15-47.16,3.64-14.25-5.79-28.54-20.91-34.74-14.61-6-33.54-3.32-44.16,7.72a59.55,59.55,0,0,0-12.25,20.23c-8,21.3-14.91,42.87-22.34,64.31Q714.49,1031.34,681,1127.8c-17.28,49.56-35,99-52.1,148.62-3.29,9.5-6.92,19.42-6.9,29.14,0,22.51,27.37,38,50.55,29.75,10.83-3.85,18.21-10.89,24.18-19.21,13.55-18.88,27-37.82,40.72-56.61q58.72-80.41,117.66-160.73L1013.6,882.27l97.24-132.86c20.28-27.67,40.76-55.24,60.93-83,8.78-12.07,18.21-23.94,25.24-36.74,11.52-20.95.49-41.54-24-47.5-9.35-2.27-19.25-4-28.9-4.08q-165-.48-329.9-.18c-14.13,0-28.5.43-42.33,2.61-14.52,2.29-23.86,10.93-27.33,23.42s.8,23,11.49,31.77c9.13,7.52,20.41,9.19,32.54,9.18q147.72-.1,295.44,0c3.09,0,6.18.29,11.15.53Zm126.65-747c0,2.92.19,3.64,0,4.25Q882.61,402.31,856,474.65c-4.22,11.56-8.88,23.08-11.73,34.9-3,12.3.57,23.69,12.49,32.17s25.5,10.08,39.9,4.9c14.83-5.33,20.81-16.42,25.19-28.55,27-74.54,53.71-149.15,81-223.6,24.65-67.12,50-134.07,75-201.08,5.13-13.72,2.22-26.25-9.86-36s-27-11.6-42.56-5.27c-11.41,4.64-18.29,13-24.68,21.81Q931,170.27,861.12,266.59c-34,46.73-68.51,93.22-102.65,139.88-41.39,56.56-82.94,113-123.86,169.83q-63.72,88.46-126.24,177.53c-15.89,22.65-1.86,47.21,28.8,50.47,18.65,2,37.65,1.87,56.49,2.2q137.43,2.34,274.86,4.4c20.24.31,40.5.9,60.72.44,22.29-.5,38.34-13.48,39.64-30.73s-12-30.74-34.15-34.29a115.48,115.48,0,0,0-16.31-1.09q-150.55-2.47-301.11-4.88c-2.8-.05-5.59-.41-10.12-.76Z"/><path class="cls-2" d="M782.54,1072.76l312.63-427.34c-5-.24-8.06-.53-11.15-.53H788.58c-12.13,0-23.41-1.66-32.54-9.18-10.69-8.79-15-19.35-11.49-31.77s12.81-21.13,27.33-23.42c13.83-2.18,28.2-2.59,42.33-2.61q165-.24,329.9.18c9.65,0,19.55,1.81,28.9,4.08,24.46,6,35.49,26.55,24,47.5-7,12.8-16.46,24.67-25.24,36.74-20.17,27.72-40.65,55.29-60.93,83q-48.67,66.4-97.24,132.86L855.08,1098.76,737.42,1259.49c-13.73,18.79-27.17,37.73-40.72,56.61-6,8.32-13.35,15.36-24.18,19.21-23.18,8.22-50.51-7.24-50.55-29.75,0-9.72,3.61-19.64,6.9-29.14,17.14-49.6,34.82-99.06,52.1-148.62q33.63-96.43,66.94-192.95c7.43-21.44,14.36-43,22.34-64.31a59.55,59.55,0,0,1,12.25-20.23c10.62-11,29.55-13.7,44.16-7.72,15.12,6.2,24.55,20.49,20.91,34.74-4,15.9-9.56,31.54-15,47.16-16.58,48-33.41,96-50.13,144-.44,1.27-.62,2.6-.93,3.9Z"/><path class="cls-2" d="M909.19,325.71l-302,413.88c4.53.35,7.32.71,10.12.76l301.11,4.88a115.48,115.48,0,0,1,16.31,1.09c22.16,3.55,35.44,17,34.15,34.29s-17.35,30.23-39.64,30.73c-20.22.46-40.48-.13-60.72-.44q-137.43-2.13-274.86-4.4c-18.84-.33-37.84-.22-56.49-2.2-30.66-3.26-44.69-27.82-28.8-50.47q62.52-89.07,126.24-177.53C675.53,519.5,717.08,463,758.47,406.47c34.14-46.66,68.62-93.15,102.65-139.88q70.1-96.22,139.72-192.68c6.39-8.82,13.27-17.17,24.68-21.81,15.55-6.33,30.35-4.61,42.56,5.27s15,22.3,9.86,36c-25,67-50.36,134-75,201.08-27.34,74.45-54.08,149.06-81,223.6-4.38,12.13-10.36,23.22-25.19,28.55-14.4,5.18-27.84,3.68-39.9-4.9s-15.46-19.87-12.49-32.17c2.85-11.82,7.51-23.34,11.73-34.9Q882.51,402.29,909.16,330C909.38,329.35,909.19,328.63,909.19,325.71Z"/></svg>